<svg width="207" height="190" viewBox="0 0 207 190" fill="none" xmlns="http://www.w3.org/2000/svg">
<g id="Illustration - No Comments" clip-path="url(#clip0_273_14423)">
<g id="No Comments">
<path id="Shadow" fill-rule="evenodd" clip-rule="evenodd" d="M87.6811 91.6299C87.1575 90.9152 85.8397 90.2367 84.686 90.2927C83.5323 90.3483 82.4457 90.8141 81.4102 91.3091C82.2011 91.8722 83.0904 92.3052 84.0289 92.5841C84.3258 92.6725 84.9979 92.9325 86.4479 92.3478" fill="#E7EAEE"/>
<path id="Blob" fill-rule="evenodd" clip-rule="evenodd" d="M6.89328 169.326C-22.8547 129.917 56.8342 119.318 104.17 89.0644C129.964 72.5782 141.762 54.5439 164.056 55.0335C209.632 56.0347 211.497 140.095 201.819 155.196C165.324 212.137 19.206 185.638 6.89328 169.326Z" fill="#C29D68"/>
<path id="Whites" fill-rule="evenodd" clip-rule="evenodd" d="M101.209 115.95C111.151 115.95 121.265 116.868 130.187 121.221C131.239 121.734 132.452 122.688 132.073 123.786C131.931 124.199 131.583 124.504 131.237 124.774C127.194 127.928 121.821 128.729 116.705 129.295C114.718 129.515 112.728 129.716 110.734 129.88C94.9183 131.173 78.9023 130.038 63.4337 126.527C62.5232 126.32 61.4623 125.968 61.2093 125.078C60.9019 123.995 62.0139 123.07 62.9986 122.51C70.6183 118.173 79.3259 115.726 88.1111 115.454C86.5477 115.692 108.907 116.006 101.209 115.95Z" fill="white"/>
<path id="Whites_2" fill-rule="evenodd" clip-rule="evenodd" d="M158.245 85.1372C156.194 89.1706 154.479 93.4441 154.006 97.9299C153.986 98.1232 153.97 98.3296 154.061 98.5016C154.247 98.8497 154.738 98.8669 155.137 98.8414C164.376 98.2472 173.924 100.022 181.763 104.869C184.442 106.526 186.903 108.522 189.681 110.012C189.804 110.078 189.943 110.145 190.077 110.106C190.212 110.068 190.294 109.936 190.362 109.815C192.05 106.818 193.546 103.716 194.837 100.534C195.294 99.4051 195.73 98.2497 195.844 97.0403C196.129 93.995 194.078 90.8878 191.133 89.9063C183.587 87.3911 176.041 84.8755 168.494 82.3603C167.115 81.9005 165.717 81.437 164.264 81.3343C162.812 81.2316 161.274 81.5286 160.154 82.4439C159.291 83.1485 158.747 84.1513 158.245 85.1372Z" fill="white"/>
<path id="Whites_3" d="M130.503 180.893C130.488 181.653 132.354 182.217 132.924 181.698C133.495 181.179 133.562 180.336 133.592 179.577C133.999 169.343 134.08 159.42 133.864 149.18L161.406 156.139L160.175 183.326C160.137 184.096 161.36 184.383 161.956 183.875C162.552 183.367 162.65 182.514 162.705 181.745C163.272 173.826 163.372 165.87 163.819 157.956C164.056 153.763 169.581 153.763 174.951 148.593C177.624 146.018 179.906 142.466 179.906 142.466C180.33 152.081 181.149 161.721 180.411 171.319C180.355 172.048 181.513 172.344 182.084 171.87C182.633 171.414 182.747 170.65 182.804 169.944L182.811 169.856C183.571 159.81 184.451 138.31 185.547 124.228C185.962 118.896 187.138 113.787 187.826 110.756C188.13 109.419 187.179 109.442 185.276 108.607C184.497 108.265 182.755 110.771 181.965 117.882L181.925 118.257C181.641 121.086 181.391 126.425 181.179 134.275C180.834 136.074 178.758 136.49 174.951 135.523L174.801 135.485C170.899 134.468 164.912 132.613 156.842 129.918L156.787 129.175C155.907 117.241 156.207 108.9 157.685 104.154L157.731 104.008C160.055 96.7831 156.175 99.7702 155.735 100.347C152.783 104.212 152.147 109.15 152.166 113.602L152.223 126.986C152.222 128.384 152.154 129.843 151.37 131.001C150.697 131.996 149.595 132.616 148.517 133.187L135.196 140.222C133.968 140.874 132.746 141.566 131.779 142.546C130.716 143.624 129.993 145.126 130.239 146.601C130.402 147.584 130.814 148.35 131.473 148.898L131.232 155.782C130.865 166.504 130.622 174.875 130.503 180.893Z" fill="white"/>
<path id="Whites_4" d="M65.4031 181.529C65.418 182.289 64.2031 182.535 63.6329 182.016C63.0628 181.497 62.995 180.654 62.9651 179.894C62.5584 169.66 62.1517 159.419 62.3675 149.18C53.1695 151.868 43.9719 154.556 34.7739 157.243C35.2014 165.937 35.629 174.631 36.0565 183.326C36.0943 184.096 34.8715 184.382 34.2756 183.875C33.6798 183.367 33.5821 182.514 33.527 181.745C32.9598 173.825 32.5882 165.892 32.4127 157.956C32.3909 156.967 31.5892 156.183 30.8432 155.512C26.0041 151.164 21.1649 146.815 16.3261 142.466C15.9015 152.081 16.0591 161.721 16.7979 171.318C16.8539 172.048 15.696 172.344 15.1242 171.869C14.5527 171.395 14.4531 170.585 14.3977 169.856C13.2075 154.138 14.0148 138.325 12.8135 122.609C12.525 118.831 12.1069 115.006 10.6846 111.48C13.2313 110.902 42.981 104.925 40.4606 101.146C43.8572 104.126 44.0842 109.149 44.0653 113.602C44.0468 117.97 44.0282 122.339 44.0096 126.708C44.0035 128.188 44.0253 129.765 44.8618 131.001C45.5619 132.035 46.7254 132.665 47.8436 133.255C52.1181 135.512 56.3929 137.77 60.6678 140.026C62.0165 140.739 63.389 141.468 64.4522 142.546C65.5154 143.624 66.2389 145.125 65.9931 146.601C65.7476 148.076 64.3116 149.384 62.7905 149.185C64.4021 149.52 64.2464 149.165 64.7583 148.898C64.9732 159.775 65.1881 170.652 65.4031 181.529Z" fill="white"/>
<path id="Whites_5" d="M12.6645 114.259C12.2216 112.951 11.7788 111.644 11.3359 110.336C11.9527 110.486 33.9238 102.908 37.9648 101.763C38.3598 101.651 38.5835 101.6 38.5991 101.624C41.2517 105.72 41.3132 110.864 41.2911 115.709C41.2706 120.209 41.2501 124.709 41.2295 129.208C41.2253 130.199 41.0205 131.457 40.0355 131.699C34.2064 133.131 28.4604 134.884 22.8332 136.945C21.1735 137.553 19.4385 138.2 17.6798 137.985C16.755 137.872 15.8801 137.525 15.0175 137.181C14.4577 136.958 13.8029 136.605 13.8045 136.015C13.8175 131.193 13.8306 126.371 13.8436 121.549C13.8472 120.271 13.8501 118.986 13.6368 117.725C13.4369 116.542 13.05 115.397 12.6645 114.259Z" fill="white"/>
<path id="Stroke" fill-rule="evenodd" clip-rule="evenodd" d="M99.1245 0.214541C98.9715 0.256128 98.7292 0.227841 98.7537 0.0745593C98.8452 0.0287072 98.9474 -0.0184723 99.0471 0.0073113C99.1464 0.0330949 99.2112 0.173568 99.1311 0.236743L99.1245 0.214541Z" fill="#00160A"/>
<path id="Stroke_2" fill-rule="evenodd" clip-rule="evenodd" d="M1.89474 100.814L4.86955 108.334C5.15577 109.057 5.47434 109.823 6.12315 110.274C7.20694 111.027 8.70482 110.604 9.94371 110.127C12.4637 109.159 14.9359 108.077 17.4077 106.995C20.0932 105.819 22.7787 104.643 25.526 103.613C30.8018 101.634 36.399 100.187 42.0477 100.436C42.9497 100.476 43.6911 99.6458 43.851 98.7819C44.0109 97.9184 43.7403 97.0402 43.4723 96.2021L41.4524 89.8824C40.7644 87.7296 40.0415 85.5136 38.5485 83.7884C37.0555 82.0633 34.5788 80.9371 32.3798 81.6528L5.766 90.3158C2.63291 91.3357 0.505745 94.698 0.982855 97.8764C1.13509 98.8907 1.51627 99.8572 1.89474 100.814ZM37.021 83.1312C39.1926 84.9712 40.2222 87.7452 41.1196 90.4061C41.8884 92.686 42.624 94.9793 43.1831 97.3159C43.3069 97.8319 43.4215 98.3718 43.2906 98.8859C43.1597 99.4 42.7071 99.8763 42.1626 99.8652C36.8057 99.7551 31.498 100.97 26.4468 102.707C22.7477 103.979 19.1609 105.53 15.5741 107.081L15.5738 107.081L15.5732 107.082H15.5725L15.5722 107.082L15.5715 107.082H15.5712L15.5709 107.083H15.5702L15.5699 107.083L15.5696 107.083H15.5689C14.2599 107.65 12.9509 108.216 11.6363 108.768C10.5761 109.214 9.4989 109.654 8.358 109.828C7.43716 109.969 6.24787 109.762 6.00172 108.888C5.57281 107.365 4.93445 105.912 4.29566 104.458L4.29563 104.457C3.87531 103.5 3.45476 102.543 3.09361 101.565C2.18354 99.1008 1.66072 96.3592 2.52705 93.8802C2.79546 93.1121 3.20813 92.3684 3.85108 91.8514C4.421 91.393 5.13239 91.1411 5.82875 90.8986C14.423 87.9051 23.0773 85.0739 31.7849 82.4066C32.7364 82.1151 33.7305 81.8223 34.7165 81.9727C35.5823 82.1046 36.3603 82.5713 37.021 83.1312ZM11.3361 110.337L12.6647 114.259C13.0502 115.398 13.437 116.542 13.637 117.725C13.8503 118.986 13.8473 120.272 13.8438 121.55L13.8047 136.016C13.803 136.606 14.4579 136.959 15.0176 137.182C15.8802 137.526 16.7552 137.873 17.68 137.985C19.4178 138.198 21.1323 137.57 22.7738 136.968L22.8334 136.946C28.4605 134.884 34.2066 133.132 40.0356 131.7C41.0206 131.458 41.2255 130.2 41.2297 129.209L41.2912 115.71C41.3134 110.865 41.2518 105.721 38.5993 101.625C38.4234 101.353 38.1258 101.052 37.8217 101.175C39.2945 103.681 40.2154 106.494 40.5048 109.369C40.638 110.692 40.639 112.024 40.64 113.353L40.6507 129.232C40.6514 130.032 40.4925 131.048 39.6986 131.25C34.6585 132.53 29.6045 133.815 24.7549 135.667C24.5641 135.74 24.3726 135.814 24.1805 135.888L24.1798 135.889C21.7673 136.82 19.2495 137.791 16.7203 137.336C15.5295 137.122 14.2277 136.332 14.2511 135.151L14.4331 126.09C14.5299 121.259 14.596 116.262 12.6738 111.808C12.4028 111.181 12.0131 110.502 11.3361 110.337ZM42.2707 133.609C35.9721 134.64 29.7888 136.303 23.8568 138.561C22.8845 138.931 21.9193 139.317 20.9542 139.703L19.5787 140.253C19.2664 139.953 19.7344 139.501 20.1381 139.325C26.8171 136.419 33.9148 134.382 41.1711 133.288C41.584 133.225 42.1301 133.235 42.2707 133.609ZM33.1724 90.9316C33.1017 91.262 33.2323 91.6117 33.4501 91.8695C33.6875 92.1506 34.0919 92.3452 34.4244 92.1881C34.8884 91.9688 34.8549 91.2706 34.5804 90.8359C34.4224 90.5857 34.1821 90.3555 33.8871 90.3374C33.5504 90.3167 33.2434 90.6013 33.1724 90.9316ZM34.1626 91.7138C33.9226 91.8187 33.6107 91.5882 33.6396 91.3278C33.6689 91.0674 34.0242 90.9119 34.2349 91.0674C34.4456 91.2229 34.4023 91.6088 34.1626 91.7138ZM19.4485 96.0489C19.0951 95.6547 19.0206 94.9339 19.4234 94.5981C19.5012 94.5329 19.5937 94.4856 19.692 94.4732C19.9151 94.4449 20.1212 94.5969 20.2879 94.7571C20.6578 95.1132 20.9616 95.7316 20.65 96.1462C20.3654 96.5249 19.7627 96.3999 19.4485 96.0489ZM20.0926 95.179C20.0079 95.0932 19.9056 95.0013 19.7897 95.0188C19.568 95.0521 19.5728 95.4047 19.6806 95.614C19.8021 95.8502 20.0991 96.0686 20.2837 95.8852C20.4732 95.6966 20.2808 95.3691 20.0926 95.179ZM12.8483 97.4443C12.6474 97.6071 12.6226 97.8869 12.6458 98.1336C12.6728 98.4217 12.7509 98.7167 12.9479 98.9412C13.145 99.1654 13.4826 99.3011 13.7786 99.2102C14.0639 99.1228 14.2472 98.8433 14.2651 98.5651C14.2827 98.2872 14.1599 98.015 13.989 97.7858C13.7314 97.4412 13.1889 97.1684 12.8483 97.4443ZM13.2361 97.8866C13.4107 97.7715 13.7226 97.9639 13.6113 98.134L13.7015 98.3095C13.9268 98.3349 13.8841 98.705 13.663 98.753C13.4423 98.8013 13.2319 98.6245 13.143 98.4309C13.059 98.2481 13.0613 98.0017 13.2361 97.8866ZM25.5227 87.495C25.751 87.5354 25.9828 87.6114 26.1443 87.7732C26.3059 87.935 26.3749 88.2005 26.2531 88.3925C26.1476 88.5585 25.9385 88.6272 25.7441 88.6733C25.4592 88.741 25.1557 88.7849 24.876 88.6994C24.596 88.6138 24.3505 88.3652 24.3615 88.08C24.3801 87.598 25.0349 87.4091 25.5227 87.495ZM25.3352 87.9818C25.1339 87.8717 24.8415 87.9957 24.7871 88.2139C25.1248 88.4123 25.5813 88.3989 25.9063 88.1814C25.8379 87.9773 25.5566 87.874 25.3671 87.9837L25.3352 87.9818ZM64.4264 180.893L63.7817 148.262C63.2698 148.529 63.2167 149.211 63.2291 149.777L63.9253 181.432C62.9855 181.494 62.6212 180.274 62.5818 179.357C62.1386 169.093 61.8826 158.822 61.8139 148.549C63.3349 148.748 64.771 147.44 65.0165 145.965C65.2623 144.49 64.5388 142.988 63.4756 141.91C62.4124 140.832 61.0399 140.103 59.6912 139.39L46.867 132.62C45.7488 132.029 44.5853 131.399 43.8852 130.365C43.0487 129.129 43.0268 127.552 43.033 126.072L43.0887 112.966C43.1076 108.513 42.8806 103.49 39.484 100.511C42.0044 104.289 42.6569 108.967 42.6748 113.472C42.6817 115.171 42.6078 116.87 42.5335 118.569V118.569C42.4114 121.377 42.289 124.184 42.5316 126.981C42.6465 128.305 42.8634 129.676 43.6332 130.774C44.2528 131.657 45.1786 132.288 46.1073 132.859C48.3105 134.214 50.6547 135.355 52.9953 136.495C56.6661 138.283 60.3284 140.067 63.4255 142.662C64.2076 143.317 64.7898 144.808 63.7937 145.071C53.8621 147.696 44.0532 150.761 34.4071 154.254C33.6608 154.524 32.8913 153.962 32.3029 153.44L16.8161 139.686C16.2576 139.19 15.2863 139.517 14.8815 140.139C14.4768 140.761 14.4764 141.545 14.4891 142.281L14.9903 171.278C13.9424 170.292 13.7962 168.732 13.7259 167.315C13.3947 160.648 13.3172 153.969 13.24 147.292C13.128 137.639 13.0163 127.987 12.1381 118.376C11.8942 115.708 11.5132 112.864 9.70795 110.844C11.1303 114.37 11.5484 118.195 11.8369 121.973C12.439 129.852 12.5364 137.756 12.634 145.66C12.7308 153.521 12.8275 161.382 13.4211 169.22C13.4764 169.949 13.5761 170.759 14.1476 171.233C14.7194 171.708 15.8773 171.412 15.8213 170.682C15.0824 161.085 14.9248 151.445 15.3495 141.83L29.8666 154.876C30.6126 155.547 31.4143 156.331 31.4361 157.32C31.6116 165.257 31.9832 173.19 32.5504 181.109C32.6054 181.878 32.7031 182.731 33.299 183.239C33.8949 183.746 35.1177 183.46 35.0799 182.69L33.7972 156.607L61.3909 148.544C61.175 158.784 61.5818 169.025 61.9885 179.258C62.0184 180.018 62.0862 180.861 62.6563 181.38C63.2265 181.899 64.4414 181.653 64.4264 180.893ZM31.3993 155.735L15.678 141.161C15.4097 140.912 15.1192 140.543 15.3052 140.23C15.553 139.813 16.2078 140.106 16.5741 140.43L33.2665 155.201C43.455 151.647 53.7696 148.436 64.1855 145.574C64.4701 145.955 64.3112 146.523 63.9647 146.852C63.6186 147.18 63.1373 147.328 62.6746 147.466L34.2759 155.921C33.9184 156.028 33.5293 156.158 33.3365 156.47C33.1851 156.715 33.1909 157.02 33.2017 157.306C33.3205 160.396 33.5221 163.485 33.7237 166.573C34.0906 172.195 34.4576 177.817 34.3241 183.447C32.6103 180.512 32.5042 176.975 32.4417 173.599L32.1571 158.295C32.1401 157.382 32.0786 156.364 31.3993 155.735ZM11.7369 93.7387C11.6239 93.8087 11.4875 93.8328 11.3543 93.8338C10.9522 93.836 10.5393 93.602 10.4015 93.2268C10.2638 92.8514 10.4732 92.3668 10.862 92.2651C11.1609 92.1872 11.4807 92.3353 11.6985 92.5531C12.0215 92.8755 12.1261 93.4984 11.7369 93.7387ZM11.1837 92.7328C10.9297 92.6717 10.7653 93.0723 10.9392 93.2659C11.1134 93.4599 11.4341 93.4402 11.664 93.3168L11.1912 92.742L11.1837 92.7328ZM38.2098 87.4912L37.595 87.0305C37.4726 86.9386 37.3407 86.8435 37.1913 86.8391C36.9399 86.8321 36.7386 87.1049 36.7351 87.3723C36.7315 87.6397 36.879 87.8857 37.0591 88.0724C37.3121 88.334 37.6869 88.5159 38.018 88.3855C38.3489 88.2552 38.4983 87.7074 38.2098 87.4912ZM37.1226 87.501C37.1857 87.3519 37.4195 87.3392 37.4964 87.481L37.5293 87.5102C37.7784 87.5373 37.9767 87.8148 37.9347 88.0775C37.6068 88.0097 37.3075 87.7974 37.1226 87.501ZM27.4179 98.3324C27.3202 98.1508 27.2557 97.9346 27.314 97.7359C27.4332 97.3277 27.9926 97.238 28.3674 97.4227C28.8484 97.6599 29.1261 98.3915 28.7334 98.7613C28.3427 99.1291 27.6735 98.8083 27.4179 98.3324ZM27.9929 98.3454L28.3609 98.512C28.5348 98.3626 28.5139 98.0389 28.3225 97.9143C28.131 97.7893 27.8357 97.9073 27.777 98.1317L27.9926 98.3454H27.9929ZM28.5413 93.7677C28.6927 93.4303 28.5032 93.0374 28.1919 92.7913C28.0095 92.6476 27.7666 92.5366 27.5204 92.5671C27.1616 92.6113 26.9337 92.9531 26.9701 93.2586C27.0063 93.5645 27.2407 93.8278 27.5061 94.0373C27.8177 94.2831 28.3899 94.105 28.5413 93.7677ZM27.8249 93.0393C27.961 93.1054 28.0353 93.2338 28.0929 93.3575L28.0753 93.4112C28.2827 93.4707 28.1098 93.7791 27.893 93.7521C27.6761 93.7254 27.5514 93.5333 27.4687 93.3613C27.4332 93.2876 27.399 93.2062 27.4286 93.1308C27.4781 93.0046 27.6891 92.9728 27.8249 93.0393ZM34.6211 97.781C34.4495 97.5137 34.3765 97.1324 34.5745 96.8848C34.8809 96.5013 35.5 96.7601 35.8236 97.1283C35.949 97.2711 36.0646 97.4374 36.0819 97.6291C36.1125 97.9724 35.7855 98.2754 35.4505 98.2847C35.1154 98.2939 34.8057 98.0691 34.6211 97.781ZM35.4234 97.3982L35.1024 97.1722C34.9711 97.2952 34.9457 97.5207 35.046 97.6714C35.1466 97.8221 35.3599 97.8787 35.5188 97.7973C35.6292 97.6847 35.5674 97.4555 35.4166 97.4173L35.4234 97.3982ZM31.6129 85.4226C31.5257 85.5387 31.5175 85.6875 31.5292 85.8264C31.5579 86.1593 31.7012 86.503 32.005 86.7005C32.3088 86.8979 32.7917 86.8928 33.0236 86.6299C33.3215 86.2916 33.0603 85.7845 32.6969 85.5002C32.3883 85.2589 31.8419 85.1193 31.6129 85.4226ZM32.1248 85.7784C32.2766 85.6751 32.5579 85.8096 32.4964 85.9701L32.5963 85.9962C32.68 86.1501 32.6774 86.3383 32.5892 86.4903C32.4075 86.4369 32.2196 86.3692 32.1024 86.2353C31.9855 86.1011 31.9731 85.8818 32.1248 85.7784ZM5.22784 94.0815C5.44891 93.746 5.99804 93.7848 6.34936 93.9988C6.68805 94.2055 6.93637 94.6792 6.65562 94.9523C6.51302 95.0913 6.28691 95.117 6.08281 95.1014C5.80762 95.0808 5.52657 94.9924 5.33862 94.8013C5.15066 94.6105 5.08186 94.3028 5.22784 94.0815ZM5.96916 94.2659L5.62002 94.4296C5.75597 94.6474 6.05734 94.7593 6.314 94.6871C6.34998 94.505 6.18544 94.3113 5.98928 94.305L5.96916 94.2659ZM17.495 90.5145C17.7956 90.7192 18.212 90.6833 18.5305 90.5081C18.651 90.442 18.7679 90.3492 18.8092 90.2178C18.8874 89.9708 18.6699 89.7314 18.4517 89.5931C18.1098 89.3759 17.6113 89.2675 17.3351 89.5645C17.0873 89.8312 17.1941 90.31 17.495 90.5145ZM17.622 89.9981C17.6054 89.8509 17.8145 89.7219 17.9128 89.8325L17.9317 89.7969C18.1075 89.794 18.2801 89.9018 18.3553 90.0611C18.2303 90.1403 18.0984 90.2217 17.9509 90.2302C17.8034 90.2388 17.6389 90.1457 17.622 89.9981ZM14.8662 102.843C15.1687 102.635 15.6468 102.744 15.8236 103.062C16.0001 103.379 15.834 103.831 15.4908 103.965C15.1941 104.082 14.819 103.95 14.6663 103.676C14.5139 103.402 14.6047 103.022 14.8662 102.843ZM15.4475 103.596C15.5191 103.357 15.2876 103.085 15.0346 103.109C14.9668 103.353 15.1769 103.631 15.4351 103.639L15.4475 103.596ZM9.55064 105.043C9.40509 105.163 9.37265 105.389 9.38457 105.588C9.41753 106.139 9.90203 106.731 10.3582 106.5C10.6207 106.367 10.7389 105.997 10.6614 105.692C10.5842 105.386 10.3475 105.152 10.0805 105.03C9.90952 104.953 9.69851 104.921 9.55064 105.043ZM10.1072 105.544C10.2628 105.587 10.3348 105.831 10.2322 105.966L10.34 106.103C10.13 106.139 9.85449 106.078 9.81346 105.849C9.78252 105.676 9.95152 105.5 10.1072 105.544ZM8.57552 101.251C8.5099 101.322 8.42768 101.379 8.3368 101.415C8.17496 101.481 7.986 101.481 7.82442 101.414C7.48278 101.275 7.32306 100.825 7.50378 100.511C7.6845 100.197 8.16373 100.092 8.46575 100.301C8.76774 100.51 8.82244 100.983 8.57552 101.251ZM8.2356 101.174C8.44791 101.021 8.3046 100.619 8.04002 100.625C7.92205 100.695 7.83296 100.809 7.79616 100.938C7.91752 101.048 8.06887 101.126 8.23048 101.162L8.2356 101.174ZM40.9549 96.1233C40.8709 95.8387 40.7318 95.5059 40.3941 95.435C40.0314 95.359 39.6869 95.675 39.6667 95.9894C39.6465 96.3061 39.9057 96.639 40.2776 96.6899C40.6491 96.7407 41.046 96.4311 40.9549 96.1233ZM40.4257 96.027C40.5342 96.1491 40.3847 96.357 40.2063 96.3325L40.2271 96.2724C40.1108 96.2473 40.0509 96.1138 40.1187 96.0305C40.1861 95.9468 40.3557 95.9449 40.4257 96.027ZM38.3749 91.4372C38.2883 91.0305 38.6979 90.6022 39.1187 90.6595C39.5993 90.725 39.8451 91.4031 39.5136 91.7494C39.1825 92.0959 38.4736 91.9017 38.3749 91.4372ZM38.9568 91.6228C39.1408 91.6648 39.3456 91.4992 39.3261 91.3154C39.3069 91.1316 39.0558 91.0121 38.9018 91.1189C38.7474 91.2254 38.792 91.5087 38.9747 91.5561L38.9568 91.6228ZM22.7067 99.6896C22.6644 99.5459 22.5722 99.4178 22.4501 99.3332C22.0421 99.0493 21.382 99.4493 21.4335 99.9494C21.4846 100.449 22.2114 100.702 22.5533 100.339C22.7119 100.17 22.7728 99.9132 22.7067 99.6896ZM21.8881 100.018C21.8467 99.8655 22.0092 99.6985 22.16 99.7386C22.3107 99.7787 22.3719 100.005 22.2622 100.118C22.1528 100.23 21.9294 100.171 21.8881 100.018Z" fill="#00160A"/>
<path id="Stroke_3" fill-rule="evenodd" clip-rule="evenodd" d="M165.788 84.3779C165.858 84.4285 165.903 84.4978 165.938 84.5693C166.092 84.8924 165.997 85.3152 165.644 85.4977C165.29 85.6802 164.721 85.485 164.707 85.1372C164.702 85.0262 164.749 84.9184 164.802 84.8164C164.889 84.6495 165.002 84.4828 165.182 84.3805C165.361 84.2778 165.624 84.2581 165.788 84.3779ZM165.553 84.899C165.661 84.8695 165.627 84.7006 165.513 84.7029C165.221 84.7776 165.084 85.1197 165.264 85.3267C165.409 85.2125 165.511 85.0609 165.552 84.8981L165.553 84.899ZM179.056 89.9867C179.324 90.0824 179.626 89.947 179.848 89.7791C180.091 89.5954 180.304 89.3499 180.334 89.0631C180.364 88.7767 180.152 88.4581 179.837 88.4307C179.616 88.4117 179.411 88.5306 179.24 88.6587C179.011 88.8307 178.797 89.0421 178.728 89.3054C178.658 89.5686 178.779 89.8882 179.056 89.9867ZM180.051 88.9938L179.442 89.5464L179.43 89.5658L179.194 89.4129C179.269 89.2421 179.351 89.0622 179.513 88.9518C179.675 88.8418 179.942 88.8383 180.051 88.9938ZM185.689 93.0768C185.45 92.8447 185.549 92.432 185.715 92.1405C185.835 91.93 185.993 91.7259 186.216 91.641C186.438 91.5564 186.733 91.6372 186.821 91.8642C186.876 92.0054 186.842 92.1653 186.801 92.3115C186.729 92.5789 186.63 92.8536 186.426 93.0352C186.222 93.217 185.885 93.2676 185.689 93.0768ZM186.5 92.268C186.524 92.2206 186.545 92.1681 186.536 92.1157C186.527 92.0613 186.483 92.0152 186.431 92.0041C186.095 92.1011 185.867 92.487 185.936 92.8384C186.177 92.7172 186.378 92.5141 186.5 92.268ZM183.467 98.5111C183.823 98.7794 184.328 98.4109 184.545 98.0313C184.691 97.775 184.801 97.4997 184.87 97.2155C184.913 97.04 184.918 96.8133 184.752 96.7271C184.672 96.6851 184.574 96.6915 184.485 96.7071C183.883 96.811 183.378 97.3032 183.281 97.879C183.243 98.1057 183.278 98.3686 183.467 98.5111ZM184.458 97.2552C184.487 97.343 184.423 97.4317 184.363 97.5035L183.754 98.2294C183.649 97.8014 183.916 97.3191 184.346 97.1601C184.397 97.1697 184.442 97.2075 184.458 97.2552ZM131.62 142.581C131.292 143.346 131.61 144.426 132.44 144.61C140.864 146.475 149.182 148.798 157.341 151.563C160.045 152.479 163.055 153.439 165.681 152.331C166.702 151.9 167.565 151.188 168.412 150.486L177.244 143.167C174.283 147.039 170.62 150.402 166.475 153.053C165.484 153.687 164.434 154.292 163.265 154.49C161.81 154.736 160.331 154.326 158.915 153.921L134.114 146.831C133.123 146.548 131.882 145.619 132.514 144.824C131.696 145.119 131.756 146.254 131.97 147.078L158.8 154.71C160.071 155.072 161.389 155.437 162.701 155.259C164.004 155.082 165.164 154.386 166.266 153.688C170.959 150.714 175.555 147.223 178.153 142.395C178.229 142.254 178.305 142.111 178.381 141.966C179.061 140.676 179.785 139.303 181.155 138.81C181.391 149.642 181.214 160.483 180.626 171.303C180.587 172.029 181.752 172.287 182.3 171.793C182.847 171.299 182.909 170.491 182.933 169.765L184.362 127.863C184.563 121.972 184.816 115.875 187.501 110.593C184.343 115.4 184.063 121.416 183.879 127.118L182.518 169.114C182.485 170.155 182.303 171.417 181.316 171.818L181.838 138.33C180.17 138.183 178.978 139.775 177.989 141.095L177.97 141.12C175.099 144.953 171.067 147.783 167.105 150.546C165.436 151.71 163.394 152.933 161.464 152.251C151.839 148.849 142.024 145.956 132.078 143.589C133.352 141.756 135.255 140.438 137.168 139.244C140.6 137.103 144.207 135.228 147.944 133.644C148.032 133.607 148.119 133.57 148.206 133.533C149.938 132.801 151.741 132.039 152.886 130.588C154.426 128.635 154.39 125.953 154.325 123.492C154.236 120.112 154.224 116.73 154.289 113.35C154.377 108.739 154.653 103.958 156.853 99.8747C154.308 102.059 154.059 105.77 153.993 109.072L153.674 125.262C153.634 127.284 153.484 129.551 151.937 130.9C151.355 131.407 150.63 131.726 149.918 132.038L149.868 132.06C144.157 134.571 138.646 137.516 133.404 140.859C132.692 141.313 131.948 141.817 131.62 142.581ZM161.75 183.148C161.358 183.48 160.534 183.301 160.562 182.808C161.065 173.844 161.622 164.883 162.234 155.925C161.963 155.755 161.718 156.177 161.699 156.483L160.224 179.598C160.147 180.806 160.07 182.029 160.309 183.218C160.446 183.905 161.584 183.993 162.107 183.494C162.63 182.996 162.696 182.231 162.732 181.534L164.054 155.908C164.071 155.583 163.913 155.116 163.578 155.208L162.219 181.774C162.193 182.268 162.142 182.817 161.75 183.148ZM134.749 148.217L133.708 178.988C133.686 179.655 132.635 179.886 132.088 179.47C131.54 179.053 131.4 178.326 131.327 177.663C130.985 174.573 131.257 171.461 131.527 168.359V168.359C131.569 167.879 131.611 167.4 131.65 166.921C132.158 160.762 132.287 154.574 132.035 148.4C132.028 148.221 132.32 148.156 132.461 148.276C132.602 148.396 132.624 148.595 132.635 148.774C132.998 154.752 132.571 160.734 132.145 166.715C131.98 169.029 131.816 171.344 131.696 173.659C131.615 175.236 131.558 176.842 131.98 178.369C132.063 178.67 132.185 178.992 132.465 179.153C132.745 179.314 133.209 179.178 133.22 178.867L134.24 148.877C134.251 148.558 134.43 148.115 134.749 148.217ZM189.405 99.5705C189.473 99.5552 189.546 99.5469 189.61 99.5771C189.713 99.6264 189.757 99.7584 189.772 99.8789C189.84 100.423 189.485 100.992 188.993 101.128C188.783 101.186 188.49 101.106 188.479 100.872C188.449 100.276 188.866 99.6916 189.405 99.5705ZM189.343 100.343C189.44 100.25 189.483 100.095 189.448 99.9596C189.121 100.038 188.861 100.372 188.845 100.734C189.054 100.698 189.243 100.55 189.34 100.348L189.343 100.343ZM169.816 97.0962C169.755 96.9913 169.671 96.8997 169.57 96.8304C169.223 96.592 168.688 96.6785 168.437 97.0139C168.186 97.349 168.262 97.8755 168.599 98.1289C168.935 98.3823 169.473 98.3194 169.739 97.9957C169.943 97.7467 169.975 97.3748 169.816 97.0962ZM169.23 97.8316C168.986 97.8679 168.757 97.5878 168.847 97.3624C168.937 97.1369 169.299 97.0829 169.453 97.2721C169.607 97.4612 169.474 97.7951 169.23 97.8316ZM187.659 104.051C187.741 104.09 187.813 104.164 187.824 104.257C187.833 104.323 187.811 104.388 187.789 104.45L187.671 104.785C187.592 105.011 187.508 105.246 187.342 105.414C187.177 105.582 186.905 105.663 186.71 105.534C186.373 105.31 186.548 104.761 186.801 104.438C187.015 104.167 187.354 103.902 187.659 104.051ZM187.234 104.911C187.357 104.798 187.404 104.604 187.348 104.444C187.011 104.542 186.811 104.979 186.948 105.312L187.244 104.924L187.234 104.911ZM176.001 98.5104C175.974 98.4507 175.94 98.3915 175.889 98.3496C175.725 98.2144 175.474 98.314 175.304 98.4415C175.084 98.6058 174.89 98.822 174.823 99.0859C174.756 99.3495 174.844 99.6636 175.079 99.8042C175.489 100.049 176.027 99.6159 176.093 99.1476C176.123 98.9324 176.091 98.7088 176.001 98.5104ZM175.317 99.4818C175.157 99.4185 175.135 99.1609 175.28 99.0713L175.277 99.0719L175.646 98.719C175.786 99.0004 175.619 99.387 175.317 99.4818ZM162.565 96.5084C162.482 96.5904 162.376 96.6498 162.263 96.6788C161.798 96.7971 161.314 96.255 161.486 95.8089C161.658 95.3625 162.383 95.283 162.648 95.6811C162.815 95.931 162.778 96.2966 162.565 96.5084ZM162.188 95.8254C162.036 95.7978 161.875 95.93 161.873 96.0845C161.871 96.2391 162.03 96.3748 162.183 96.3503C162.347 96.2076 162.371 95.9323 162.234 95.7634L162.188 95.8254ZM191.818 95.0608C192.161 94.8865 192.313 94.4335 192.38 94.0163C192.439 93.6443 191.971 93.4018 191.671 93.5706C191.371 93.7397 191.226 94.1225 191.105 94.4751C190.969 94.8703 191.476 95.235 191.818 95.0608ZM191.893 93.9225C192.026 93.9604 192.059 94.2036 191.941 94.2837L191.941 94.2802C191.931 94.4878 191.735 94.6576 191.554 94.615C191.562 94.3416 191.692 94.0758 191.893 93.9225ZM177.27 95.4235C176.924 95.4223 176.687 94.9698 176.772 94.6039C176.858 94.2376 177.168 93.9804 177.495 93.8542C177.728 93.7639 177.99 93.9855 178.043 94.25C178.096 94.5142 177.992 94.788 177.85 95.0096C177.713 95.2251 177.51 95.4245 177.27 95.4235ZM177.652 94.629L177.691 94.3429C177.373 94.2844 177.055 94.6443 177.121 94.9889C177.186 95.0388 177.271 95.0573 177.349 95.0385C177.411 94.8802 177.509 94.7387 177.632 94.6312L177.652 94.629ZM169.818 93.198C170.18 93.2046 170.432 92.9023 170.526 92.6187C170.597 92.4002 170.597 92.1278 170.373 91.9933C170.122 91.8432 169.754 91.9662 169.544 92.1529C169.358 92.3188 169.234 92.5436 169.272 92.7656C169.31 92.9875 169.541 93.1925 169.818 93.198ZM169.969 92.308C170.111 92.2654 170.251 92.4479 170.141 92.5325L170.131 92.5176C170.077 92.6463 169.969 92.7601 169.831 92.8371C169.689 92.6711 169.757 92.4136 169.969 92.308ZM183.255 102.107C183.266 102.048 183.276 101.986 183.254 101.931C183.22 101.845 183.122 101.802 183.029 101.789C182.628 101.731 182.28 102.068 182.092 102.418C181.927 102.727 181.882 103.199 182.209 103.34C182.523 103.475 182.845 103.16 182.996 102.859C183.115 102.62 183.202 102.367 183.255 102.107ZM182.502 102.62C182.441 102.517 182.501 102.367 182.617 102.331L182.605 102.341C182.691 102.333 182.754 102.441 182.719 102.519C182.685 102.596 182.587 102.632 182.502 102.62ZM172.787 87.7087C172.593 87.8845 172.377 88.0467 172.128 88.1083C172.05 88.1274 171.992 88.0358 171.963 87.9573C171.807 87.523 171.831 86.9695 172.165 86.6674C172.5 86.3657 173.154 86.5542 173.173 87.0184C173.183 87.2954 172.986 87.5284 172.787 87.7087ZM172.705 86.932C172.406 86.9107 172.196 87.3033 172.285 87.6054C172.551 87.5249 172.745 87.2353 172.73 86.9434L172.705 86.932ZM164.054 89.8513C164.04 89.6259 163.881 89.3966 163.665 89.3833C163.489 89.3725 163.331 89.5019 163.23 89.652C163.072 89.8863 163.015 90.2195 163.169 90.457C163.323 90.6942 163.721 90.7336 163.861 90.4869C163.971 90.2926 164.068 90.0764 164.054 89.8513ZM163.452 90.3823L163.425 90.0789L163.43 90.0755C163.472 89.9441 163.558 89.829 163.671 89.7553C163.78 89.9778 163.672 90.285 163.452 90.3823ZM157.142 94.3505C157.292 94.594 157.194 94.9237 157.054 95.174C157.007 95.2592 156.951 95.3453 156.868 95.3905C156.693 95.4871 156.475 95.3574 156.364 95.1835C156.199 94.9272 156.191 94.5489 156.388 94.3197C156.584 94.0907 156.982 94.0911 157.142 94.3505ZM156.598 94.733C156.598 94.8217 156.697 94.8916 156.772 94.8557C156.848 94.8201 156.867 94.6942 156.806 94.6347C156.742 94.588 156.64 94.6532 156.647 94.7352L156.598 94.733ZM158.661 90.0182C158.98 90.0309 159.251 89.6748 159.149 89.3785C159.124 89.307 159.082 89.2415 159.027 89.1884C158.8 88.969 158.355 89.0542 158.229 89.3416C158.102 89.6291 158.343 90.0055 158.661 90.0182ZM158.735 89.3674C158.878 89.3702 158.784 89.631 158.644 89.6033L158.646 89.609C158.591 89.5257 158.639 89.3963 158.735 89.3674Z" fill="#00160A"/>
<path id="Stroke_4" fill-rule="evenodd" clip-rule="evenodd" d="M189.645 88.8399C191.383 89.4192 193.192 90.0421 194.462 91.3441C196.053 92.9754 196.511 95.4312 196.201 97.6717C195.891 99.9123 194.91 102.001 193.941 104.052C192.845 106.368 191.75 108.686 190.654 111.003C187.042 109.294 183.936 106.715 180.482 104.716C172.945 100.355 163.942 98.9009 155.208 99.3031C154.473 99.3368 153.518 99.2347 153.337 98.5334C153.283 98.3248 153.319 98.1051 153.356 97.8927C154.2 93.1023 155.841 88.4489 158.195 84.1741C158.544 83.5405 158.914 82.9078 159.422 82.3883C160.594 81.1884 162.385 80.7327 164.075 80.8056C165.765 80.8787 167.394 81.4182 168.996 81.9527C175.879 84.2482 182.762 86.5441 189.645 88.8399ZM158.245 85.1378C156.193 89.1709 154.478 93.4444 154.005 97.9305C153.985 98.1238 153.969 98.3299 154.061 98.5022C154.247 98.85 154.738 98.8675 155.136 98.8418C164.375 98.2475 173.924 100.023 181.762 104.87C184.441 106.526 186.902 108.523 189.68 110.013C189.803 110.078 189.942 110.145 190.077 110.107C190.212 110.068 190.293 109.937 190.361 109.816C192.05 106.819 193.545 103.716 194.836 100.534C195.294 99.4055 195.73 98.2501 195.843 97.0406C196.129 93.9957 194.077 90.8884 191.133 89.907C183.586 87.3914 176.04 84.8762 168.494 82.3606C167.114 81.9009 165.716 81.4373 164.264 81.3346C162.811 81.2319 161.273 81.5289 160.153 82.4445C159.291 83.1491 158.746 84.1519 158.245 85.1378Z" fill="#00160A"/>
<path id="Stroke_5" fill-rule="evenodd" clip-rule="evenodd" d="M96.9258 104.042C96.482 104.286 95.905 103.909 95.7366 103.444C95.6054 103.081 95.6353 102.691 95.6653 102.304C95.6738 102.194 95.6822 102.084 95.6871 101.975C95.7324 100.945 95.439 99.9438 95.1462 98.9448C95.0551 98.6336 94.9639 98.3226 94.8831 98.011C93.5399 92.8314 95.2306 87.0176 99.1681 83.2751C99.6725 84.2114 101.018 84.4581 102.042 84.0931C103.066 83.7281 103.84 82.9164 104.567 82.1289C105.294 81.3413 106.055 80.523 107.071 80.1354C106.311 80.0089 105.52 80.0594 104.784 80.2823C104.671 79.275 103.581 78.4757 102.549 78.6423C101.843 78.7558 101.284 78.1114 100.845 77.5655C100.406 77.0196 99.7041 76.4501 99.058 76.7461C99.8887 77.2316 99.8223 78.4258 99.4722 79.3017C99.4084 79.4617 99.3384 79.6225 99.268 79.7841C98.9522 80.509 98.6288 81.2507 98.8255 81.9947C99.0124 82.7025 98.4204 83.3555 97.9131 83.8966C95.0652 86.9333 93.5341 91.0907 93.7555 95.1852C92.9176 94.0851 91.8535 93.1468 90.6435 92.442C90.4178 92.3107 90.1853 92.1854 89.9521 92.0601C89.126 91.6156 88.2944 91.1683 87.7561 90.431C87.1215 89.5614 85.9466 89.185 84.8466 89.2174C83.7467 89.2498 82.6929 89.6285 81.6626 90.0027C81.3767 90.1067 81.0433 90.2688 81.0215 90.5633C81.0055 90.7829 81.1781 90.9699 81.3478 91.1165C82.973 92.5208 85.508 92.8375 87.4487 91.8786C88.155 91.5298 89.0101 91.8652 89.6861 92.2665C93.6125 94.5957 95.8125 99.3706 94.9782 103.752C94.3234 103.992 93.619 103.96 92.9115 103.928C92.522 103.91 92.1316 103.893 91.7477 103.92C90.6656 103.997 89.4269 104.763 89.6168 105.797C90.0563 108.192 90.496 110.655 90.0095 113.042C89.8685 113.734 89.6513 114.408 89.4341 115.083C89.2775 115.569 89.1212 116.055 88.9929 116.548C88.6715 117.784 88.5298 119.064 88.5731 120.338C88.5848 120.68 88.6138 121.035 88.7893 121.331C89.0485 121.769 89.5682 121.989 90.0625 122.149C91.6575 122.667 93.3628 122.863 95.0388 122.722C96.3058 122.615 97.7337 122.178 98.2146 121.039C98.5184 120.319 98.3582 119.505 98.2049 118.743C97.4751 115.119 97.0111 111.282 98.2905 107.804C98.3345 107.684 98.3807 107.564 98.4273 107.443C98.7005 106.732 98.9799 106.005 98.861 105.265C98.722 104.399 97.7138 103.61 96.9258 104.042ZM93.4058 115.015L92.382 117.138C92.2618 117.387 92.1889 117.766 92.4533 117.867C93.1664 116.895 93.6734 115.783 93.9336 114.619C94.0293 114.19 94.4266 113.872 94.8577 113.737C95.2889 113.603 95.7535 113.62 96.2055 113.648C96.4592 113.664 96.7392 113.695 96.9095 113.878C97.045 114.022 97.0772 114.229 97.1039 114.422L97.8138 119.59C97.876 120.044 97.9356 120.522 97.7574 120.946C97.4562 121.664 96.595 121.981 95.8095 122.13C93.8795 122.497 91.8414 122.315 90.0134 121.613C89.7555 121.514 89.4914 121.398 89.3169 121.189C89.084 120.91 89.0557 120.525 89.0511 120.167C89.0202 117.85 89.565 115.527 90.6269 113.449L93.1042 114.326C93.2553 114.379 93.4227 114.448 93.4807 114.593C93.535 114.73 93.4699 114.882 93.4058 115.015ZM93.6067 113.784C93.4432 113.966 93.1319 114.047 92.9424 113.891C92.2973 113.357 91.4022 113.119 90.5656 113.258C90.8655 111.529 90.6431 109.782 90.4204 108.031C90.3143 107.196 90.2081 106.361 90.1583 105.526C90.1524 105.429 90.1495 105.323 90.2074 105.243C90.3022 105.112 90.5012 105.118 90.665 105.138L94.5686 105.612C94.7024 105.628 94.8405 105.646 94.9551 105.714C95.2781 105.908 95.2449 106.365 95.1716 106.726L93.8721 113.117C93.8239 113.354 93.7701 113.602 93.6067 113.784ZM94.5269 112.276C95.1153 110.074 95.5158 107.825 95.7233 105.559C96.6796 105.712 97.6913 105.516 98.5119 105.017C98.3481 105.765 98.1433 106.51 97.9385 107.255C97.452 109.024 96.9655 110.792 97.0319 112.61L97.0326 112.627C97.0381 112.781 97.0443 112.94 96.9792 113.081C96.9118 113.226 96.7399 113.34 96.5842 113.289C95.8571 113.05 95.0127 113.177 94.3947 113.617C94.285 113.181 94.4067 112.725 94.523 112.289L94.5269 112.276ZM99.6246 82.9097C99.2117 82.319 99.1264 81.5423 99.3322 80.8574C99.4282 80.5373 99.5842 80.2235 99.7389 79.9119C100.049 79.2868 100.355 78.67 100.17 78.0265C100.116 77.8411 100.053 77.5839 100.234 77.5044C100.953 78.1091 101.426 78.9806 101.532 79.8966C101.563 80.1643 101.558 80.4533 101.406 80.6788C101.257 80.8994 101.003 81.0123 100.75 81.1245C100.661 81.1639 100.572 81.2034 100.488 81.2476C100.164 81.417 99.8652 81.7941 100.046 82.1044C101.605 80.9945 103.603 80.4769 105.527 80.6842C105.011 81.0015 104.537 81.3817 104.12 81.8129C103.975 81.9626 103.832 82.1209 103.688 82.2805C103.068 82.9686 102.43 83.6763 101.522 83.7854C100.79 83.8734 100.037 83.5005 99.6246 82.9097ZM84.6858 89.6568C85.8395 89.6008 87.1573 90.2793 87.6809 90.9941L86.4477 91.712C85.07 92.2677 84.3947 92.0604 84.0759 91.9628C84.0593 91.9574 84.0436 91.9527 84.029 91.9482C83.0902 91.6694 82.2009 91.2363 81.41 90.6733C82.4455 90.1782 83.5321 89.7124 84.6858 89.6568ZM104.129 80.0918C104.07 80.1688 103.966 80.1955 103.87 80.2171L102.289 80.5735C102.213 80.5907 102.132 80.6079 102.058 80.5827C101.863 80.5172 101.878 80.2441 101.954 80.0588C102.03 79.8731 102.124 79.6413 101.985 79.4938C101.816 79.3145 102.13 79.0757 102.38 79.0573C102.971 79.014 103.576 79.2315 103.995 79.6369C104.121 79.7586 104.234 79.9529 104.129 80.0918ZM95.1462 104.711C95.2801 104.86 95.2026 105.165 94.9984 105.155C93.7464 105.089 92.5008 104.904 91.2862 104.602C92.3605 104.357 93.4823 104.438 94.5826 104.52C94.7864 104.536 95.0124 104.561 95.1462 104.711ZM97.9593 104.579C98.0147 104.701 97.9378 104.862 97.8056 104.9C97.1547 105.09 96.48 105.203 95.8011 105.238C95.6265 105.127 95.678 104.844 95.8447 104.722C96.0114 104.601 96.2361 104.594 96.4452 104.592L97.9593 104.579ZM101.176 116.365C110.636 116.434 120.588 116.63 128.764 121.34C129.549 121.792 129.559 122.995 129.012 123.712C128.464 124.429 127.561 124.772 126.7 125.056C123.981 125.951 121.181 126.601 118.344 126.996C115.661 127.369 112.952 127.513 110.246 127.633C94.4569 128.328 78.435 128.156 63.138 124.222C63.0752 123.674 63.574 123.239 64.0312 122.925C71.0042 118.131 79.7203 116.73 88.1111 115.454C79.3259 115.726 70.6183 118.173 62.9986 122.51C62.0139 123.07 60.9019 123.995 61.2093 125.078C61.4623 125.968 62.5232 126.32 63.4337 126.527C78.9023 130.038 94.9183 131.173 110.734 129.88C112.728 129.717 114.718 129.515 116.705 129.295C121.821 128.729 127.194 127.928 131.237 124.774C131.583 124.504 131.931 124.199 132.073 123.786C132.452 122.688 131.239 121.735 130.187 121.221C121.265 116.868 111.048 115.158 101.176 116.365ZM131.196 122.473C131.701 123.098 131.702 124.186 130.992 124.57C128.676 125.822 126.324 127.071 123.772 127.734C122.42 128.085 121.031 128.266 119.646 128.44C116.955 128.776 114.26 129.084 111.558 129.322C95.1895 130.762 78.5894 129.586 62.5945 125.853C61.8485 125.679 61.5268 124.699 61.8374 124.005C62.0817 123.46 62.5903 123.088 63.1569 122.859C62.7635 123.181 62.658 123.922 62.9898 124.376C63.4301 124.979 64.239 125.166 64.9768 125.306C73.7164 126.967 82.5611 128.21 91.4579 128.408C94.31 128.471 97.1629 128.427 100.015 128.383C108.428 128.253 116.927 128.112 125.094 126.114C126.746 125.709 128.477 125.169 129.579 123.886C129.788 123.641 129.975 123.362 130.023 123.045C130.123 122.377 129.595 121.794 129.107 121.322C129.876 121.569 130.691 121.847 131.196 122.473ZM63.63 122.704C63.4447 122.694 63.2855 122.755 63.1569 122.859C63.3116 122.797 63.4708 122.746 63.63 122.704ZM64.1426 122.442C64.0143 122.471 63.8619 122.321 63.9413 122.217L64.0068 122.285C64.0654 122.131 64.292 122.073 64.4187 122.179C64.3516 122.291 64.2709 122.413 64.1426 122.442ZM117.69 180.063C118.375 182.179 120.053 184.164 122.279 184.441C123.084 184.541 123.689 183.386 123.143 182.792C122.597 182.198 121.379 182.686 121.404 183.489C120.005 182.946 119.024 181.635 118.53 180.23C118.035 178.824 117.957 177.313 117.885 175.826L117.591 169.792C117.492 167.765 117.308 165.539 115.862 164.103C115.547 163.79 115.185 163.53 114.823 163.27C114.359 162.937 113.897 162.604 113.538 162.166C112.699 161.139 112.576 159.725 112.534 158.404C112.302 151.135 113.439 143.825 115.87 136.963C116.03 136.513 116.194 136.065 116.36 135.616V135.616C117.025 133.805 117.693 131.991 117.99 130.092C117.616 129.998 117.355 130.447 117.236 130.811L114.839 138.162C114.214 140.08 113.588 142 113.122 143.962C112.028 148.573 111.838 153.341 111.652 158.073C111.607 159.216 111.575 160.419 112.105 161.435C112.488 162.171 113.118 162.72 113.751 163.273C114.21 163.674 114.671 164.077 115.04 164.552C115.856 165.603 116.177 166.943 116.411 168.248C116.719 169.969 116.913 171.71 116.99 173.456C117.009 173.881 117.021 174.307 117.033 174.734C117.084 176.539 117.136 178.352 117.69 180.063ZM121.935 183.249C122.003 182.995 122.396 182.904 122.564 183.107L122.609 183.07C122.775 183.275 122.662 183.636 122.406 183.705C122.15 183.773 121.867 183.503 121.935 183.249ZM70.6105 186.274C70.5011 185.591 71.3129 185.145 71.9944 185.01L72.0771 184.994C72.7414 184.864 73.5138 184.713 73.7597 184.097C74.7489 181.618 74.8013 178.88 74.8534 176.159C74.915 172.932 74.9762 169.729 76.5988 167.009C77.3771 165.704 78.4702 164.611 79.6444 163.643C79.733 163.57 79.8225 163.496 79.9127 163.423L79.9147 163.421L79.916 163.42C80.8675 162.644 81.8632 161.831 82.1976 160.668C82.3842 160.018 82.339 159.328 82.2921 158.655L81.3862 145.623C81.2706 143.959 81.155 142.294 80.9251 140.643C80.4546 137.258 79.5099 133.955 78.4191 130.715C79.2781 131.197 79.6659 132.205 79.9515 133.143C81.5992 138.556 81.9831 144.258 82.3569 149.901L82.9424 158.74C83.0495 160.356 82.959 162.344 81.5112 163.088C79.2136 164.269 77.3859 166.326 76.4917 168.739C75.6337 171.053 75.633 173.555 75.632 176.04C75.632 176.603 75.6317 177.165 75.6216 177.723C75.5666 180.748 75.1016 183.998 73.0143 186.2C72.6704 186.562 72.2592 186.903 71.7639 186.979C71.2683 187.055 70.689 186.766 70.6105 186.274ZM71.0674 186.256C71.0436 186.4 71.1905 186.527 71.3363 186.537C71.4825 186.547 71.6209 186.475 71.7466 186.401C72.1491 186.162 72.5203 185.872 72.8482 185.539C72.5929 185.348 72.2292 185.354 71.9358 185.479C71.6424 185.605 71.406 185.831 71.1875 186.063C71.1345 186.119 71.0801 186.18 71.0674 186.256ZM99.9105 165.053C99.8571 169.252 100.415 173.433 100.971 177.597C101.126 178.756 101.286 179.935 101.773 181.001C101.993 181.483 102.425 182.004 102.945 181.887C103.108 181.851 103.251 181.753 103.372 181.639C103.846 181.194 103.992 180.373 103.547 179.9C103.103 179.426 102.099 179.675 102.069 180.321C101.198 175.75 100.642 171.12 100.404 166.474C100.377 165.957 100.321 165.372 99.9105 165.053ZM103.201 180.223C103.223 180.311 103.175 180.401 103.127 180.479L102.743 181.117L102.488 181.069C102.46 180.814 102.516 180.549 102.647 180.327C102.769 180.12 103.141 179.991 103.201 180.223ZM99.988 157.471C99.8561 156.074 99.9102 154.666 99.9747 153.264C100.308 145.992 100.921 138.733 101.811 131.507C101.832 131.334 101.874 131.132 102.034 131.059C102.364 130.908 102.547 131.45 102.506 131.81C101.515 140.464 100.863 149.158 100.626 157.865C100.62 158.056 100.33 158.118 100.183 157.994C100.037 157.871 100.006 157.661 99.988 157.471Z" fill="#044047"/>
<path id="Whites_6" d="M103.871 164.922C101.891 164.791 99.9123 164.66 97.9328 164.529C95.2037 164.349 92.4658 164.167 89.7817 163.657C87.9074 163.302 86.0656 162.786 84.2851 162.12C84.0913 162.047 83.8895 161.967 83.7592 161.81C83.5111 161.511 83.6348 161.04 83.9227 160.776C84.2109 160.512 84.6123 160.405 84.9982 160.314C93.1555 158.394 101.72 159.63 109.982 161.074C110.607 161.184 111.251 161.301 111.783 161.637C112.315 161.974 112.711 162.588 112.582 163.189C112.432 163.894 111.665 164.296 110.955 164.519C108.69 165.229 106.246 165.079 103.871 164.922Z" fill="white"/>
<path id="Stroke_6" fill-rule="evenodd" clip-rule="evenodd" d="M103.871 164.922C101.891 164.791 99.9123 164.66 97.9328 164.529C95.2037 164.349 92.4658 164.167 89.7817 163.657C87.9074 163.302 86.0656 162.786 84.2851 162.12C84.0913 162.047 83.8895 161.967 83.7592 161.81C83.5111 161.511 83.6348 161.04 83.9227 160.776C84.2109 160.512 84.6123 160.405 84.9982 160.314C93.1555 158.394 101.72 159.63 109.982 161.074C110.607 161.184 111.251 161.301 111.783 161.637C112.315 161.974 112.711 162.588 112.582 163.189C112.432 163.894 111.665 164.296 110.955 164.519C108.69 165.229 106.246 165.079 103.871 164.922ZM84.1008 161.574C90.5202 163.715 97.4225 163.987 104.21 164.239C105.876 164.3 107.543 164.362 109.21 164.321C109.868 164.305 110.583 164.252 111.072 163.826C111.561 163.401 111.59 162.472 110.98 162.233C107.436 160.843 103.542 160.586 99.7247 160.352C95.1812 160.074 90.5866 159.808 86.1021 160.566C85.3349 160.696 84.4814 160.917 84.1008 161.574Z" fill="#00160A"/>
<path id="Stroke_7" fill-rule="evenodd" clip-rule="evenodd" d="M181.85 135.169C182.242 133.058 182.45 130.913 182.473 128.767C182.507 125.472 182.105 122.176 182.295 118.887C182.486 115.597 183.343 112.206 185.547 109.726C185.345 111.091 184.91 112.423 184.264 113.648C182.995 116.058 182.952 118.89 182.936 121.604C182.913 125.781 182.889 129.958 182.866 134.135C182.858 135.409 181.965 136.574 180.814 137.158C179.664 137.741 178.302 137.809 177.024 137.606C176.009 137.444 175.028 137.121 174.053 136.8C168.273 134.894 162.494 132.989 156.714 131.084C156.249 130.931 155.701 130.677 155.668 130.196C155.159 122.901 155.131 115.574 155.583 108.276C155.777 105.135 156.207 101.689 158.558 99.5568C157.845 101.036 157.128 102.524 156.689 104.103C156.113 106.179 156.033 108.353 155.958 110.504C155.728 117.014 155.499 123.554 156.28 130.022C156.317 130.329 156.428 130.711 156.739 130.751C159.313 131.084 161.778 131.955 164.22 132.821C167.605 134.021 170.99 135.22 174.375 136.42C175.198 136.711 176.033 137.006 176.905 137.079C178.153 137.183 179.388 136.829 180.588 136.478C180.945 136.374 181.326 136.255 181.557 135.968C181.737 135.744 181.798 135.45 181.85 135.169Z" fill="#00160A"/>
<path id="Stroke_8" fill-rule="evenodd" clip-rule="evenodd" d="M176.43 138.664C171.3 138.342 166.55 136.115 161.641 134.663C159.914 134.152 158.159 133.735 156.405 133.318C155.265 133.048 154.124 132.777 152.984 132.506C155.214 131.949 157.553 132.652 159.739 133.348C165.303 135.12 170.866 136.892 176.43 138.664Z" fill="#00160A"/>
<path id="Stroke_9" fill-rule="evenodd" clip-rule="evenodd" d="M85.8512 90.4894C86.0202 90.4945 86.1713 90.5174 86.4126 90.574L87.8092 90.9311C87.8841 90.9498 87.9538 90.967 88.0147 90.9819C88.1019 91.0036 88.1547 91.09 88.1329 91.1749C88.1107 91.2601 88.0225 91.312 87.9352 91.2903L87.4325 91.1641L86.4829 90.919L86.4119 90.9015C86.1449 90.836 86 90.8122 85.8408 90.8071L85.8004 90.8077C85.5047 90.8179 84.112 90.9521 83.2136 91.0093C83.1238 91.015 83.0463 90.9489 83.0404 90.8611C83.0345 90.7737 83.1026 90.698 83.1921 90.6923L83.5321 90.6688C84.4263 90.603 85.5992 90.4914 85.8314 90.4891L85.8512 90.4894Z" fill="#00160A"/>
<path id="Stroke_10" fill-rule="evenodd" clip-rule="evenodd" d="M85.6606 89.9251C85.7274 89.8663 85.8303 89.872 85.8905 89.9372L86.4167 90.5098C86.4766 90.5753 86.4711 90.6758 86.404 90.7343C86.3373 90.7931 86.2344 90.7877 86.1741 90.7222L85.6482 90.1496C85.588 90.0841 85.5935 89.9836 85.6606 89.9251Z" fill="#00160A"/>
<path id="Stroke_11" fill-rule="evenodd" clip-rule="evenodd" d="M86.3772 90.5059C86.4498 90.5574 86.4661 90.6566 86.4134 90.7278L85.9236 91.3876C85.8709 91.4588 85.769 91.4744 85.6963 91.4229C85.6234 91.3714 85.6071 91.2722 85.6599 91.2009L86.1496 90.5412C86.2024 90.47 86.3043 90.4544 86.3772 90.5059Z" fill="#00160A"/>
<path id="Stroke_12" fill-rule="evenodd" clip-rule="evenodd" d="M83.7992 90.1505C83.8412 90.0729 83.9399 90.0431 84.0193 90.0841L84.8594 90.5174C84.9389 90.5584 84.9692 90.6548 84.9272 90.7324C84.8851 90.8099 84.7865 90.8398 84.707 90.7988L83.8672 90.3655C83.7875 90.3244 83.7572 90.2281 83.7992 90.1505Z" fill="#00160A"/>
<path id="Stroke_13" fill-rule="evenodd" clip-rule="evenodd" d="M84.8554 90.5747C84.9131 90.6421 84.9043 90.7422 84.8353 90.7985L83.9694 91.5075C83.9007 91.5638 83.7978 91.5549 83.7402 91.4878C83.6825 91.4204 83.6913 91.3202 83.7604 91.2636L84.6259 90.555C84.6949 90.4987 84.7975 90.5073 84.8554 90.5747Z" fill="#00160A"/>
<path id="Shadow_2" fill-rule="evenodd" clip-rule="evenodd" d="M92.4532 117.866C92.1888 117.765 92.2617 117.387 92.3819 117.137C92.7232 116.43 93.0644 115.722 93.4057 115.014C93.4698 114.881 93.535 114.729 93.4806 114.592C93.4226 114.447 93.2552 114.379 93.1041 114.325C92.2784 114.033 91.4526 113.741 90.6268 113.448C89.5649 115.526 89.0201 117.849 89.0511 120.167C89.0556 120.525 89.0839 120.91 89.3168 121.188C89.4913 121.397 89.7554 121.514 90.0133 121.612C91.8414 122.314 93.8795 122.496 95.8095 122.13C96.5949 121.981 97.4562 121.663 97.7574 120.946C97.9355 120.521 97.8759 120.043 97.8137 119.589C97.577 117.866 97.3406 116.144 97.1038 114.421C97.0771 114.228 97.0449 114.022 96.9094 113.877C96.7391 113.694 96.4591 113.664 96.2054 113.648C95.7535 113.619 95.2888 113.602 94.8576 113.736C94.4265 113.871 94.0293 114.19 93.9335 114.618C93.6733 115.782 93.1663 116.894 92.4532 117.866Z" fill="#E7EAEE"/>
<path id="Whites_7" fill-rule="evenodd" clip-rule="evenodd" d="M90.5656 113.258C91.4021 113.119 92.2973 113.357 92.9424 113.891C93.1319 114.047 93.4432 113.966 93.6066 113.784C93.7701 113.602 93.8238 113.353 93.872 113.117C94.3051 110.986 94.7385 108.856 95.1716 106.725C95.2449 106.365 95.2781 105.907 94.9551 105.714C94.8404 105.645 94.7024 105.628 94.5685 105.612C93.2673 105.454 91.9661 105.296 90.6649 105.138C90.5011 105.118 90.3025 105.112 90.2074 105.243C90.1494 105.323 90.1524 105.428 90.1582 105.526C90.3126 108.11 91.0084 110.705 90.5656 113.258Z" fill="white"/>
<path id="Whites_8" fill-rule="evenodd" clip-rule="evenodd" d="M98.5118 105.016C97.6912 105.515 96.6792 105.712 95.7231 105.559C95.5157 107.824 95.1152 110.073 94.5264 112.276C94.4092 112.715 94.2835 113.176 94.3946 113.617C95.0126 113.176 95.857 113.05 96.5838 113.288C96.7397 113.34 96.9113 113.225 96.9791 113.08C97.0465 112.935 97.0377 112.769 97.0318 112.61C96.9374 110.027 97.9586 107.545 98.5118 105.016Z" fill="white"/>
<path id="Whites_9" fill-rule="evenodd" clip-rule="evenodd" d="M91.2861 104.601C92.5007 104.903 93.7462 105.088 94.9983 105.154C95.2025 105.165 95.28 104.859 95.1461 104.71C95.0123 104.561 94.7863 104.535 94.5825 104.52C93.4822 104.437 92.3604 104.356 91.2861 104.601Z" fill="white"/>
<path id="Whites_10" fill-rule="evenodd" clip-rule="evenodd" d="M95.801 105.238C96.4799 105.204 97.1546 105.09 97.8056 104.901C97.9378 104.862 98.0146 104.701 97.9593 104.579C97.4545 104.584 96.9498 104.588 96.4451 104.592C96.236 104.594 96.0113 104.601 95.8446 104.723C95.6779 104.845 95.6264 105.127 95.801 105.238Z" fill="white"/>
<path id="Highlights" fill-rule="evenodd" clip-rule="evenodd" d="M99.3322 80.8576C99.1264 81.5425 99.2117 82.3189 99.6246 82.91C100.037 83.5007 100.79 83.8736 101.522 83.7856C102.641 83.6511 103.349 82.6089 104.12 81.8131C104.537 81.3819 105.011 81.0017 105.527 80.6844C103.603 80.4771 101.605 80.9947 100.046 82.1046C99.8652 81.7943 100.163 81.4172 100.487 81.2478C100.811 81.0783 101.205 80.9772 101.406 80.679C101.558 80.4535 101.563 80.1642 101.532 79.8968C101.426 78.9808 100.953 78.1094 100.234 77.5046C100.053 77.5841 100.116 77.8413 100.17 78.0267C100.448 78.9913 99.621 79.8959 99.3322 80.8576Z" fill="#FFB61D"/>
<path id="Highlights_2" fill-rule="evenodd" clip-rule="evenodd" d="M103.87 80.217C103.966 80.1954 104.07 80.1687 104.129 80.0921C104.234 79.9528 104.121 79.7589 103.995 79.6368C103.576 79.2314 102.971 79.0139 102.38 79.0575C102.131 79.0759 101.816 79.3147 101.985 79.4937C102.124 79.6416 102.03 79.873 101.954 80.0587C101.878 80.2444 101.863 80.5172 102.058 80.583C102.132 80.6078 102.213 80.5909 102.289 80.5738C102.816 80.4549 103.343 80.3359 103.87 80.217Z" fill="#FFB61D"/>
</g>
</g>
<defs>
<clipPath id="clip0_273_14423">
<rect width="207" height="190" fill="white"/>
</clipPath>
</defs>
</svg>
